/* XPM */
static char *bitcoin32[] = {
/* columns rows colors chars-per-pixel */
"32 32 256 2 ",
"   c #5B2B06",
".  c #5D310D",
"X  c #602700",
"o  c #643103",
"O  c #6A3402",
"+  c #6A3D0C",
"@  c #68370B",
"#  c #723C01",
"$  c #733D09",
"%  c #7D3E00",
"&  c #673814",
"*  c #764104",
"=  c #7C4404",
"-  c #73420A",
";  c #7D4A0B",
":  c #7B420B",
">  c #714411",
",  c #7B4B12",
"<  c #714218",
"1  c #7C4D1A",
"2  c #854400",
"3  c #834905",
"4  c #8C4C02",
"5  c #83450A",
"6  c #8B4D0E",
"7  c #914E00",
"8  c #954E0B",
"9  c #8D5204",
"0  c #85510B",
"q  c #8E580B",
"w  c #935404",
"e  c #995502",
"r  c #965903",
"t  c #9C5B04",
"y  c #92550A",
"u  c #99560D",
"i  c #955C0C",
"p  c #9B5C09",
"a  c #8A4D12",
"s  c #804F10",
"d  c #835214",
"f  c #8E5913",
"g  c #8A5817",
"h  c #905311",
"j  c #925E14",
"k  c #985E16",
"l  c #A25C03",
"z  c #9E620B",
"x  c #9F6006",
"c  c #9C6312",
"v  c #9E6E1A",
"b  c #99671A",
"n  c #9F741E",
"m  c #A46404",
"M  c #AB6303",
"N  c #AB6A04",
"B  c #A3650D",
"V  c #AB640B",
"C  c #A36A0B",
"Z  c #AC6E0B",
"A  c #B26B04",
"S  c #B96D04",
"D  c #B36B0A",
"F  c #B76B07",
"G  c #AA720F",
"H  c #A87309",
"J  c #B37004",
"K  c #BB7302",
"L  c #BE7D06",
"P  c #B3730C",
"I  c #BB740B",
"U  c #BD7B0C",
"Y  c #A26413",
"T  c #A96412",
"R  c #A66C15",
"E  c #AB6C14",
"W  c #A36C19",
"Q  c #A96318",
"!  c #B36C14",
"~  c #B06B18",
"^  c #AC7214",
"/  c #A47419",
"(  c #AD751B",
")  c #AC7A16",
"_  c #B37413",
"`  c #BB7712",
"'  c #B37C14",
"]  c #BB7A15",
"[  c #B37419",
"{  c #B37C1B",
"}  c #BA7E1A",
"|  c #B97719",
" . c #9D7120",
".. c #AB7323",
"X. c #AA7A26",
"o. c #B37E24",
"O. c #B47C2A",
"+. c #B57A24",
"@. c #C17C0C",
"#. c #C37D14",
"$. c #BC840C",
"%. c #BB8213",
"&. c #B5821B",
"*. c #BA831B",
"=. c #BB8617",
"-. c #A98426",
";. c #BC8323",
":. c #BB832B",
">. c #BD8B2D",
",. c #B68727",
"<. c #BF8632",
"1. c #C3830E",
"2. c #C68A0A",
"3. c #C88608",
"4. c #D38A07",
"5. c #CC9109",
"6. c #C38113",
"7. c #CC8614",
"8. c #C38B16",
"9. c #CB8A14",
"0. c #C3851B",
"q. c #C28A1B",
"w. c #CF8C1C",
"e. c #D18D1A",
"r. c #D18A12",
"t. c #C69116",
"y. c #CB9014",
"u. c #CE9319",
"i. c #C69018",
"p. c #D09716",
"a. c #D2941B",
"s. c #D39B19",
"d. c #DA9C1B",
"f. c #D89818",
"g. c #D69607",
"h. c #E39D14",
"j. c #DBA317",
"k. c #EAAD1E",
"l. c #E9A718",
"z. c #F0A91A",
"x. c #EFB11E",
"c. c #FFBD1C",
"v. c #FDB41B",
"b. c #C68A23",
"n. c #C38B2B",
"m. c #C98E2C",
"M. c #C68920",
"N. c #D18D2B",
"B. c #CF952B",
"V. c #D49A24",
"C. c #D49C2D",
"Z. c #D89728",
"A. c #C18C3A",
"S. c #CD9B37",
"D. c #CA9237",
"F. c #D39E35",
"G. c #D59B3D",
"H. c #D99E34",
"J. c #DDA224",
"K. c #DDA22B",
"L. c #D7A12A",
"P. c #DDA335",
"I. c #DDA53E",
"U. c #D7A93B",
"Y. c #E2A525",
"T. c #EBAC24",
"R. c #E4A62B",
"E. c #E6A82E",
"W. c #ECAD2B",
"Q. c #E6A824",
"!. c #F1AD24",
"~. c #EFB12D",
"^. c #F3B32D",
"/. c #FBB728",
"(. c #E2A433",
"). c #E4AA33",
"_. c #E9AD34",
"`. c #E1A73D",
"'. c #E4AD3B",
"]. c #EBAD3B",
"[. c #F0AD3F",
"{. c #EEB234",
"}. c #EDB33C",
"|. c #E5B03E",
" X c #F3B532",
".X c #F2B53A",
"XX c #FABC3A",
"oX c #F8BA36",
"OX c #FFC71D",
"+X c #FFC626",
"@X c #FFC43D",
"#X c #CA9444",
"$X c #D79F48",
"%X c #DBA041",
"&X c #DFAC4C",
"*X c #D8A847",
"=X c #CDA559",
"-X c #E4AE42",
";X c #EAAC42",
":X c #E3AE4C",
">X c #E4B143",
",X c #EBB444",
"<X c #EEB944",
"1X c #E5B34C",
"2X c #ECB44B",
"3X c #EDBA4C",
"4X c #E6B94E",
"5X c #F3B743",
"6X c #F3BC46",
"7X c #F8BC43",
"8X c #F2B548",
"9X c #F4BB4B",
"0X c #F9BC4E",
"qX c #EEBD52",
"wX c #E8BF5C",
"eX c #FBBE52",
"rX c #FBC143",
"tX c #FDC34B",
"yX c #FFCB4C",
"uX c #F5C448",
"iX c #F3C354",
"pX c #FFC551",
"aX c #FFCC53",
"sX c #F3C65A",
"dX c #FECC5C",
"fX c #FFD257",
"gX c #FED45B",
"hX c #FFD957",
"jX c #EAC76A",
"kX c #F7CB69",
"lX c #FFD568",
"zX c #F4CF77",
"xX c #FFDB7B",
"cX c #FDD774",
"vX c #FDDC81",
"bX c #F6DA8B",
"nX c #FCDC89",
"mX c #F3D589",
"MX c #FBE28F",
"NX c #FAE193",
"BX c #F7E092",
"VX c #EBDDA7",
"CX c #EFE2AC",
"ZX c #FBE9A7",
"AX c #F9EAA8",
"SX c #FFF1A9",
"DX c #FBEFB5",
"FX c #FFF6B6",
"GX c #FFFDBD",
"HX c #FBF1B9",
"JX c #FFFDCC",
"KX c #FFF9C6",
"LX c #FFFFD3",
"PX c #FFFFDE",
"IX c #FFFFE3",
"UX c None",
/* pixels */
"UXUXUXUXUXUXUXUXUXUXUXUX) %.&.{ ' *.&.( UXUXUXUXUXUXUXUXUXUXUXUX",
"UXUXUXUXUXUXUXUXUXH $.%.' R R c v f g v ..=.) UXUXUXUXUXUXUXUXUX",
"UXUXUXUXUXUXUXUX5.1._ f O : m H q   ; W f g { =./ UXUXUXUXUXUXUX",
"UXUXUXUXUXUX$.g.R $ O.F.2 = y a.o w 3.0 f . . g b.*.UXUXUXUXUXUX",
"UXUXUXUXUXs.d.h 5 9 c >.( = 3 D.X ( }.o o $ > . @ { q.UXUXUXUXUX",
"UXUXUXUXJ.J.a w p w U C q w 4 C r w :.X.- O - $ & & ( 8.UXUXUXUX",
"UXUXUXL. Xa r B e 2 J m _ d.T.z.v.z.4.r.i o o $ , + . { q.UXUXUX",
"UXUXUX@Xh u C B e 4 _ '.rXXX X^.^.v.c.c.v.1.O o * , > < 0.G UXUX",
"UXUXuX>.2 B p e e B.uX3X>X|.'._.{.~.!.!.v.OXh.; O - , + d y.UXUX",
"UXUXuX6 Y x u 7 H.fX<X,X>X>X|.).R._.~.~.W.!.OXl.* O ; d < ' ' UX",
"UX'.:.3 W x 9 0.gX6X<X<X<X,X|.1X4X'.'._.~.~.T.+Xy.# ; s > f 2.UX",
"UXF.b c p w x 6XaXrX9X6X6X{.qXGXJXjXK.>X|._.{.^./.c * 0 g 1 1.UX",
"UXn.i W i 2 b.gXtXrXXXXX.X!.bXPXLXCXJ._.).(.).'.@Xi.# ; f 1 ' $.",
"X.o.B c p 7 P.aX7XdXcXcXlXsXHXLXJXJXjXsXzXjXwX'.<XP.9 9 j , z 2.",
" .( [ ^ B p ;XpX7XsXmXbXNXAXLXCXVXIXDXzXbXAXbX'.,X>XC r i b / 2.",
"b ( ` _ r B 8XeX0X2X&X:X;XnXGX=X*XLXKX&X%X&X1X<X<X4XR 9 z i c y.",
"W ( M.U m D ;X0X[.kXSXFXxXlXxX$X}.nXSXBXMXFXMX}.6X3X^ 7 C / R a.",
"n { 7.0.` P (.6X0X`.%X:XuXpXaXgXlXcXvXxX%X2XqXtXtX4XG J H C { V.",
"/ { w.9.@.J Z..X[.].;X].].7X_.`.-X,XaXlX3X.X7XtXyX-Xm K %.G } K.",
"UX{ w.d.@.A e.{._.].].).[.(.A.%X$XF..XtX6X6XtXtXhXS.l K L ^ C.C.",
"UX&.0.h.7.@.@.Y.E._.R.N.N...%XpX0XeX[.(.(.(.eXtXiX^ K @.2.m }.UX",
"UX' b.a.f.3.@.7.W.W.Y.m.n.m.[.].,X8X8XG.D.%X0XdXA.M 3.L 1.*.6XUX",
"UXUXq.#.f.7.S D u.T.Q.W.W. X_._.].[.,X8X0X0XdX$Xt S @.1.M I.U.UX",
"UXUXq.0.e.e.@.K D 6.k.k.Y.Y.R.E.E._._.].5XpX#Xz K K U 1.^ -XUXUX",
"UXUXUXs.[ r.7.@.F l ` a.k.x.T.Q.T.~.oXXX`.O.w K K 6.U V S.,.UXUX",
"UXUXUX=.a.[ 7.#.F V V t Z %.u.V.J.V.m.( k l S S U @.D o.>.UXUXUX",
"UXUXUXUXa.a.! @.#.I D Z.M.u z E h y y t N A D ` U V ..-.UXUXUXUX",
"UXUXUXUXUXa.f.~ ! K } ;.I ~ } N.E ] P d.f.8.V V ~ ( n UXUXUXUXUX",
"UXUXUXUXUXUXy.l.] Q T P D E R ^ R ( Y +.0.~ u R &./ UXUXUXUXUXUX",
"UXUXUXUXUXUXUXUXj.d.` ~ Q 8 _ P 8 a 5 a 6 Y *.*./ UXUXUXUXUXUXUX",
"UXUXUXUXUXUXUXUXUX%.j.d.9.6.| T E E [ *.q.q.( UXUXUXUXUXUXUXUXUX",
"UXUXUXUXUXUXUXUXUXUXUXUXq.t.t.u.u.i.q.%.UXUXUXUXUXUXUXUXUXUXUXUX"
};
