/* XPM */
static char *bitcoin64[] = {
/* columns rows colors chars-per-pixel */
"64 64 256 2 ",
"   c #4C1E06",
".  c #5A2905",
"X  c #5A2A12",
"o  c #632D00",
"O  c #652C03",
"+  c #643303",
"@  c #6A3502",
"#  c #6C3A04",
"$  c #6D3B0B",
"%  c #66340C",
"&  c #723C03",
"*  c #723E0C",
"=  c #783904",
"-  c #6A3916",
";  c #753D16",
":  c #732E00",
">  c #6B3B21",
",  c #754106",
"<  c #7A4405",
"1  c #74430B",
"2  c #7B430B",
"3  c #7C4B0D",
"4  c #7E4807",
"5  c #734214",
"6  c #7A4B13",
"7  c #794517",
"8  c #794B14",
"9  c #764723",
"0  c #813B03",
"q  c #834301",
"w  c #8B4400",
"e  c #844B04",
"r  c #8C4B02",
"t  c #834C0B",
"y  c #87490B",
"u  c #954C04",
"i  c #8C5204",
"p  c #8C530B",
"a  c #87540C",
"s  c #945402",
"d  c #9A5401",
"f  c #945A05",
"g  c #9C5C05",
"h  c #93540C",
"j  c #955A0C",
"k  c #9C5D0A",
"l  c #9C570C",
"z  c #864917",
"x  c #895716",
"c  c #975918",
"v  c #904A16",
"b  c #A35D03",
"n  c #A45906",
"m  c #A35E13",
"M  c #9D610C",
"N  c #9C6105",
"B  c #9C6313",
"V  c #9B641C",
"C  c #9C6C1B",
"Z  c #966618",
"A  c #8E611B",
"S  c #A36304",
"D  c #AC6404",
"F  c #AC6B04",
"G  c #A3630B",
"H  c #AB650A",
"J  c #A56A0D",
"K  c #AC6B0C",
"L  c #A76904",
"P  c #B26B04",
"I  c #B36D0A",
"U  c #B96B07",
"Y  c #AC760C",
"T  c #B57102",
"R  c #BB7303",
"E  c #BD7903",
"W  c #B5730C",
"Q  c #BC750A",
"!  c #B47A0C",
"~  c #BC7A0C",
"^  c #A26513",
"/  c #A36A15",
"(  c #A36C1C",
")  c #A96917",
"_  c #B06D16",
"`  c #AB7314",
"'  c #A4731A",
"]  c #AC741C",
"[  c #AD7A1A",
"{  c #A97716",
"}  c #B37413",
"|  c #B47C14",
" . c #BC7C14",
".. c #B3741A",
"X. c #B37C1C",
"o. c #BC7815",
"O. c #8C5723",
"+. c #945A23",
"@. c #834B21",
"#. c #9B6624",
"$. c #9E752E",
"%. c #A36B21",
"&. c #A56B23",
"*. c #AB7423",
"=. c #A97723",
"-. c #B37B23",
";. c #B47A27",
":. c #AA7734",
">. c #C37C0C",
",. c #C37905",
"<. c #C37D14",
"1. c #C27E1A",
"2. c #A87E43",
"3. c #BC820C",
"4. c #BD8203",
"5. c #BB8416",
"6. c #BC841B",
"7. c #B88418",
"8. c #AC8019",
"9. c #B48224",
"0. c #BB8627",
"q. c #B98433",
"w. c #B2882A",
"e. c #C4820D",
"r. c #CA840C",
"t. c #CC8A0E",
"y. c #C78705",
"u. c #D38905",
"i. c #CE9208",
"p. c #D79705",
"a. c #C38414",
"s. c #CC8511",
"d. c #C48C14",
"f. c #CB8B15",
"g. c #C3841B",
"h. c #C48B1B",
"j. c #CB8C1C",
"k. c #CA861D",
"l. c #D28C16",
"z. c #CD9314",
"x. c #CB921A",
"c. c #C79118",
"v. c #D49B15",
"b. c #DB9D14",
"n. c #D2931C",
"m. c #D79818",
"M. c #E29A11",
"N. c #DEA21C",
"B. c #DDA214",
"V. c #DEA006",
"C. c #E5A507",
"Z. c #EBAD12",
"A. c #E2A41C",
"S. c #E7A916",
"D. c #F4AD1D",
"F. c #F7AD16",
"G. c #F4B312",
"H. c #FDB41C",
"J. c #FFBD1A",
"K. c #F5B31A",
"L. c #F2B212",
"P. c #C58A25",
"I. c #CB942B",
"U. c #D49523",
"Y. c #D59A23",
"T. c #D7992A",
"R. c #CB9537",
"E. c #D49C33",
"W. c #D99A34",
"Q. c #C98C2C",
"!. c #E29C31",
"~. c #DCA329",
"^. c #DAA539",
"/. c #E2A523",
"(. c #E3A62A",
"). c #E6A82D",
"_. c #ECAE2C",
"`. c #EAAB25",
"'. c #F1AE23",
"]. c #F0AF2E",
"[. c #F8B828",
"{. c #E2A534",
"}. c #E4AB32",
"|. c #E9AD34",
" X c #E5AD3A",
".X c #EBAE3B",
"XX c #E0A639",
"oX c #E5B03D",
"OX c #EDB13C",
"+X c #EDB235",
"@X c #FBBB35",
"#X c #F3B43B",
"$X c #F6B839",
"%X c #F0B033",
"&X c #FFC31A",
"*X c #FFC329",
"=X c #FEC439",
"-X c #B48848",
";X c #DAA745",
":X c #D5A952",
">X c #E4AC46",
",X c #E5B143",
"<X c #ECB343",
"1X c #EEB845",
"2X c #ECBB4C",
"3X c #E8B34A",
"4X c #F2B544",
"5X c #F3BC46",
"6X c #F2B54B",
"7X c #F5BA4B",
"8X c #F9BD4A",
"9X c #F9BC46",
"0X c #E9B953",
"qX c #F8BC52",
"wX c #F0AE44",
"eX c #D5B261",
"rX c #FCC344",
"tX c #F6C04A",
"yX c #FBC249",
"uX c #FFCB4D",
"iX c #FAC641",
"pX c #FFD649",
"aX c #FEC452",
"sX c #FECB53",
"dX c #FECB5C",
"fX c #F7C753",
"gX c #FFD255",
"hX c #FFD758",
"jX c #EEC35B",
"kX c #FFE658",
"lX c #EEC867",
"zX c #F9CC66",
"xX c #FDD26B",
"cX c #FED365",
"vX c #FDDB7D",
"bX c #FAD576",
"nX c #EDCE72",
"mX c #F8DA84",
"MX c #ECD589",
"NX c #FFE48C",
"BX c #FCE698",
"VX c #F7EC9B",
"CX c #FBEAA7",
"ZX c #FFF7AA",
"AX c #FBEEB1",
"SX c #FFF6BD",
"DX c #FFFABD",
"FX c #FEF3B3",
"GX c #FFF6C2",
"HX c #FFFDC4",
"JX c #FFFDCB",
"KX c #FFF7C9",
"LX c #FFFFD3",
"PX c #FFFFDB",
"IX c #FFFFEA",
"UX c None",
/* pixels */
"UXUXUXUXUXUXUXUXUXUXUXUXUXUXUXUXUXUXUXUXUXUXUXUXUXUXUX/ ` ' ` { ' ` ( ( C Z UXUXUXUXUXUXUXUXUXUXUXUXUXUXUXUXUXUXUXUXUXUXUXUXUXUX",
"UXUXUXUXUXUXUXUXUXUXUXUXUXUXUXUXUXUXUXUXUXUXUX{ { | 3.5.d.d.d.d.d.d.d.7.7.[ [ ] ' C UXUXUXUXUXUXUXUXUXUXUXUXUXUXUXUXUXUXUXUXUXUX",
"UXUXUXUXUXUXUXUXUXUXUXUXUXUXUXUXUXUXUXUX` ! 3.y.i.z.c.7.] ( ( V V %.] -.6.h.c.c.7.[ ] ' UXUXUXUXUXUXUXUXUXUXUXUXUXUXUXUXUXUXUXUX",
"UXUXUXUXUXUXUXUXUXUXUXUXUXUXUXUXUXUXY 3.y.p.z.7.] c z z z ; $ $ 5 5 % % - 5 @.V X.j.c.7.[ ] x UXUXUXUXUXUXUXUXUXUXUXUXUXUXUXUXUX",
"UXUXUXUXUXUXUXUXUXUXUXUXUXUXUXUXY y.i.V.a.B z z $ O O g i.y.! 3.z.` o + O 1 8 - X 5 V 9.z.5.8.[ UXUXUXUXUXUXUXUXUXUXUXUXUXUXUXUX",
"UXUXUXUXUXUXUXUXUXUXUXUXUXUXJ y.p.p.a.V 7 z 2 < e q t j S S i.Y j e @ $ B c.c.h.3.3 X - +.0.n.7.X.' UXUXUXUXUXUXUXUXUXUXUXUXUXUX",
"UXUXUXUXUXUXUXUXUXUXUXUXUX~ i.p.l.( @.O G hXoXe = i p t o e Z.J . # * p i.! < a 8.{ 5 $   X #.6.d.[ [ UXUXUXUXUXUXUXUXUXUXUXUXUX",
"UXUXUXUXUXUXUXUXUXUXUXUXi.p.V.7.@.* r < ` 1XuXE.= r p e # j =X6.O < * ! C.i . $ 5 1 $ + + +   > -.x.5.] V UXUXUXUXUXUXUXUXUXUXUX",
"UXUXUXUXUXUXUXUXUXUXC v.C.B.%.; q f j r j ' C I.9.q q e & j hXT.@ < @ ~.$X& + < 1 # @ $ 5 5 1 $ X O.n.6.[ ( UXUXUXUXUXUXUXUXUXUX",
"UXUXUXUXUXUXUXUXUX' B.Z.v.O.7 u i j c u j ' e Z 9.B q e q i ,X0.: < @ XXkX/ . . + & * 8 8 7 5 1 +   9 h.d.[ ' UXUXUXUXUXUXUXUXUX",
"UXUXUXUXUXUXUXUXZ /.K.Y.@.y G f s B j w J 6.5.| / w.' r q < Z x = & O p <XtXE.-.t @ * , 1 $ + + $ 1 . > P.d.| C UXUXUXUXUXUXUXUX",
"UXUXUXUXUXUXUXUX`.[.Y.z w S B k s B g r Y N.3.i r L N q r s g M S N f = # x w.<XC + , # # # 1 8 8 8 8 $ > g.d.[ C UXUXUXUXUXUXUX",
"UXUXUXUXUXUXUX(.*X/.@.r b M ^ k d f r q 3.&XN : q f W n.A.'.H.H.H.H.F.Z.u.P r & O & , , , # 1 8 8 8 8 1 . - h.d.| UXUXUXUXUXUXUX",
"UXUXUXUXUXUXI.=X_.O.v J d ^ / g g s 0 w ~ E r J Y.].*X@X[.[.'.H.D.H.H.H.J.&XH.M.F , o 2 & o @ 1 $ $ $ # 1 + 9 c.d.[ UXUXUXUXUXUX",
"UXUXUXUXUX' iX=X%.2 K B g J J g g g d s q l T.=X=X%X_.|._.`._.'.'.'.'.D.D.F.H.J.&XF.G @ @ , , , # , 8 8 6 6 X O.z.3.` UXUXUXUXUX",
"UXUXUXUXUX=XpXP.$ g ^ ^ k g b b b S d s P.2XtXoXoX X|.+X_.+X_._.'.'.'.'.'.D.D.F.F.J.&Xp.< + 4 , 1 1 6 6 6 6 x - *.z.7.C UXUXUXUX",
"UXUXUXUXI.kX+X6 r g / J G S b S S d g ^.fX<X,X,X,X XoXoX+X|.+X_._._._._.'.D.'.D.D.F.F.&XF.i + < < , , 1 1 1 8 # - 6.y.| UXUXUXUX",
"UXUXUXUXsXpX*.6 J s B / g i g S d S <XfX,XoX,X,X,X,XoX X X X|.|.]._._._._.'._._.'.'.D.F.&XJ.k + 4 4 1 , 1 1 1 1 . A z.3.C UXUXUX",
"UXUXUXE.kXXX7 M / k k J d = n g b 1XfX<X,X1X,X,X,X,X,X,XoXoXoXoX+X|.}._.+X_.'.'.'.'.'.'.D.J.J.f # < + # 6 x x 6 3 - X.i.| UXUXUX",
"UXUXUXtXpX&.= J ( ^ f b k g g d XXuX1X1X1X,X1X<X<X,X,X,X,XoXoXoXoX X|.+X|.+X|.'._._.'.'.'.'.*XK.e # < < 4 8 x x A 9 +.z.y.A UXUX",
"UXUXw.gX^.3 r B ( ^ g g G L u I.gX5X5X1X1X1X1X1X1X,X1X,X,X,X}.XX}.~.oXoX|.+X|.+X_._.'._.'._.D.&Xb.& e e 4 < 3 6 6 a 9 X.i.| UXUX",
"UXUX^.=X;.z g f ( ^ g N M s K uXyX5X5X5X5X1X1X1X1X1X1X,X,X X2X0X0X0X XoXoXoXoX|.|.|._._._.`._.'.*X` # e 4 3 4 4 3 , . V p.3.UXUX",
"UXUX^. XV c ( k k ^ g g b s  XgXtXtX5XtX5X5X5X5X1X1X1X<X}.jXJXDXDXLXnXY.,X,XoXoX X+X.X+X+X_._.`.[.'.t e a 4 a A x x , 7 d.y.` UX",
"UX9.oXQ.z B ( B f g k M s } gXyXyXyXtXtX8XtX5X5X5X1X1X1X`.VXPXDXDXHXAX^. X,XoXoXoXoX X X X_.+X+X].*XX., i a 4 a A A A ; [ p.! UX",
"UXw. X-.y ^ ( ( k r q k s ^.gXyXyXyXyXyX9XyX9X9X5X5X5X+X2XJXDXSXSXSXLXeX~.,X,X,X,X,XoXoXoX+X|.|.|.@X~.i i < < a x A A 9 ( p.3.UX",
"UX0.E.%.i g ( ( M f i d K tXyX8XyXyXyXyX8X8XtXyXtX9XtX'.MXPXSXDXSXSXLXVXE.1X<X,X,X,X;XoXoXoX X X X+X$X/ q < < i e 4 a 3 A z.y.UX",
"UXw.0.( ) G M / M N G u g.dX8X8X8X8X9X@X@X@X@X@X$X$X@X#XSXKXSXGXDXSXSXLXeXN.|.|.).}.}.(.~. X,X X X|.iX0.< f f a Z j a < 6 d.i.J ",
"%.9.-.( X.] G g k k k s W.dX8X7X8X9XaXbXbXxXxXxXcXxXfXbXPXGXSXJXHXSXSXPXMX3XbXlXlXlXlXlXlX0XoX,XoX X$XE.i f f i Z Z Z x 7  .p.Y ",
"C 9.*.V  .X.] G M M k g  XaX7X7X8X$XzXLXLXLXPXPXLXIXAXCXKXGXKXGXDXGXGXGXAXBXLXLXLXLXPXPXIXmX/.,X,X,X1X^.j f g f f Z C C 9 { V.! ",
"Z =.*.^ ~ -.X.J G J f G 3XaX7X7X7X7X7XaXdXcXxXmXNXNXbXCXAXAXIXeX:XIXGXGXPXbX$XxXbXvXNXNXFXnX}.,X,X,X,X3XB f N j f f Z ' +.] V.~ ",
"A ' ' ^ T } X.} H G g ) 6XqX6X7X6X8X4Xk.1.k.U.U.U.n.xXAXCXCXGX$.*.DXGXGXPXFXj.o.g.j.P.P.I. X2X1X,X,X,X0X%.s L N N j i j x ( C.y.",
"C ' ' =.a.I W } d f b } 6XqX6X6X6X7X7X3X>X3X>X>X>X>XmXBXNXCXMX#.].bXSXAXAXLXeXE.;X;X;X;XE.,X1X1X1X1X,XfX' f i i J =./ f , ( S.d.",
"C [ ( -.U.6.W I G b L } 6X7X6X6X6XwXzXLXJXHXJXJXZXzXbXbXvXVX2.=.pXtXBXCXBXAXmXBXLXHXHXHXLXvX%X1X1X1X1XtX*.g r r L { =.{ 3 ( Z.f.",
"Z 8.( ..n.h.g.W W W H } wX4X3X4X6XwXqXNXVXZXFXLXNXqXxXxXvXvXq.^.yX+XbXBXNXBXBXnXBXZXFXDXPXmX].5X1X1X2XtX' g L L S J [ [ A ( K.x.",
"( 8.%._ t.h.h.g.W Q I Y .X4XwXwX3X6XwXk.T.!.W.>X#XfXsXdXgXcXcXxXzXxXbXvXvXmXCX0Xs.W.^.XX:X2X9X5X5X5X5X2XC F T F L S J 7.#.] K.x.",
"C | =._ u.e.j.g.~ ~ I I (.4X.X<XwX4XwXR.R.R.R.W.$XyXtXrXrXuXdXdXcXxXzXxXxXbXmXbXR.E.W.E.T.oXyXtXtX7XyX>Xj T T F Y } S F c 9.[.P.",
"C [ [ -.m.s.>.>.~ >.~ F U.4X|..X.X.XwX9X8X8X8X#X#X1X5X9XyXuXuXuXuXgXhXcXdXcXcXbX2XiXgXuXpXyX9XyXtXtXpXR.x y.T F | 6.| F p P.*X0.",
"UX[ [ -.N.Y.n.r.>.e.a.T j.#X|..X.X.XOX#XwXwX.X|.<X#X#X9XOXR.T.E.E.E.E. XaXaXaXcX2XXXaXtXyXyXyXyXtXtXhXq.s y.E T ~ 6.6.! p I.*X9.",
"UX[ 7.] k.Y.Y.U.t.D n >.>.|.|.|.|.|..X.X#XwX|..X.X.X.X$X&.:.q.;.q.q.:.Q.@XyXyXyXaX X5XyX8XyXyXyXyXyXsX%.P P T R T 5.6.| B }.@XUX",
"UX[ d.( o.M.n.U.n.P P e.Q Y.|.).|.}.|..X.X|.!.!.!.!.wX0.#.dXdXaXaXaXsXyX.X#X5X9XyX X XaX8X8X8XtXyXpX:Xi y.n D y.E T d.' ] =X.XUX",
"UX{ d.] ..V.u.r.t.r.r.s.Q s.|.`.(.).}.}..X(.T.W.!.!.].V q.aX<X6X6X6X6XqX.X|.4XwX4X4X{.qX7X8X8X8XtXhX$.g y.E E d.d.T E B 0.pXE.UX",
"UXUX6.5.-.n.m.l.u.r.r.>.e.Q Y.'.(.(.(._.].!.!.!.!.!.k.#.1X4X<XwX6X3X6X6XwX).%X#X#X$X(.<XaX8X7X9XpX:Xy u.,.,.E e.c.e.E h ^.pX0.UX",
"UXUX7.z.&.P.'.T.U.t.r.r.>.Q a.).)./.(.(.'.T.&.*.=.-.c q.rX.X#XwX<XwX6XwX6X>X;.*.;.;.&.E.aX7XqX8XhX#.S y.E E R ~ c.d.S V pXuXUXUX",
"UXUX] c.X._ M.U.U.U.l.>.e.e.T f._././.`.(.(.T.T.W.W.^.#X|..X.X.XOX<XwXwX6X6X>X>X:X>X:X6X7X7X6XhX-X4 u.E E E E E g.z.j Q.kXoXUXUX",
"UXUXUXc.v.&.>.u.l.s.r.>.Q U Q I v.`././././.`._._._.].).).|.|.|..X.X.XwX.XwX4X7XqX7XqX6X6X6XuX:X; E ,.E E ~ d.R ~  .V OXgX=.UXUX",
"UXUXUX[ v.X.) M.s.s.>.u.U d >.Q K Y.S.N./././.(.(.(.).).}.|.|.|.|.|..X.X.X<XwXwXwXwX<X6X6XsX0X> P ,.d T E e.h.~ ,.j 0.pXXXUXUXUX",
"UXUXUXUXj.v.&.1.A.j.n.k.>.Q Q >.Q K n.'.A.A./././././.).(.).}.}.|.|..X.X.X.X.X.XwXwXwXwXuX0X9 b u.U P R E  .g.e.D M  XtX9.UXUXUX",
"UXUXUXUX| b.g.&.l.n.n.j.s.>.>.Q Q I K h.S.A.m.N./././././.(.(.).).).).|.|.|..X.X#X.XwXpX;X> n u.E R E >.T ~ a.e.h q.1XE.UXUXUXUX",
"UXUXUXUXUXx.B.X.^ u.s.>.,.,.,.Q U >.U m } N.F.A.N.A./././././.(.).).).|.}.|.|.|..XrXyX:.; T u.R E E R g.Q T t.^ &.}.,Xc UXUXUXUX",
"UXUXUXUXUX' b.v.&.U u.<.l.<.>.Q >.U H I n B 5.B.L.A.N.N.A./././././.(.).).(._.=X@XR.O.q R ,.I R U U ~ g.~ R K #.I.W.w.UXUXUXUXUX",
"UXUXUXUXUXUX6.S.n.+.1.m.k.l.1.1.>.n u I Q H h ^ | m.S.L.D.A.A.A./.`.`.'.[.@X|.q.+.5 d ,.P d R Q Q R  . .~ P c 0.R.0.UXUXUXUXUXUX",
"UXUXUXUXUXUXUXz.S.c.+.1.l.1.<.>.U U D U I I P u y p B X.6.n.N.N.N./.Y.I.;.V z 2 h R R U P b U ~  .R W a.Q c 9.0.w.UXUXUXUXUXUXUX",
"UXUXUXUXUXUXUXUXb.Z.h.+.,.,.U <.o.Q Q U I D I Y.n.D w y y z t x x x z * 2 t d P 7.` D D I U U  . .W Q >.c -.9.8.C UXUXUXUXUXUXUX",
"UXUXUXUXUXUXUXUX/ b.S.j.+.U <.1.1.1.1._ n W rX$X~.@Xk.d d H G q q h b b D 4.~ S G 7.D D I I I  .o.,.P c *.' $.C UXUXUXUXUXUXUXUX",
"UXUXUXUXUXUXUXUXUX( M.S.U.+._ l.<.o.} U D X.;XK d k.} d {.rX$X Xl q A.l.w t.p.y.y.4.F G ..D H o. .D c X.[ Z C UXUXUXUXUXUXUXUXUX",
"UXUXUXUXUXUXUXUXUXUX( M.F.l.&.m U ,.U W o.] B H H u u _ ^...^ yXE.: {.5X0 _ iXg.x.[.`.} ) H I W c V -.] C C UXUXUXUXUXUXUXUXUXUX",
"UXUXUXUXUXUXUXUXUXUXUXUXb.F.S.[ c l >.1.o.o.6.} H ) H *.Z w w ( -.w ( E.M 0 XX<Xm T.!.) H D u +.*.7.[ ' C UXUXUXUXUXUXUXUXUXUXUX",
"UXUXUXUXUXUXUXUXUXUXUXUXUXd.Z.Z.x.%.+.m U U Q l.f._ ) o.3.l m [ B u Z %.B w j R.) w k J h v ( 8.7.[ ' UXUXUXUXUXUXUXUXUXUXUXUXUX",
"UXUXUXUXUXUXUXUXUXUXUXUXUXUXX.B.L.Z.h.&.v v n o.<._ n n n.v.n.z.g h m 7.l u B c d w z c V -.c.7.[ ' UXUXUXUXUXUXUXUXUXUXUXUXUXUX",
"UXUXUXUXUXUXUXUXUXUXUXUXUXUXUXUXa.S.G.Z.j.*.m +.v u d n I a.>.n d ^ ^ n r y y z z v ( 9.c.d.7.] UXUXUXUXUXUXUXUXUXUXUXUXUXUXUXUX",
"UXUXUXUXUXUXUXUXUXUXUXUXUXUXUXUXUXUXd.B.L.G.b.g...V c c O.z = ; v v z z z O.V &.X.x.v.c.5.[ C UXUXUXUXUXUXUXUXUXUXUXUXUXUXUXUXUX",
"UXUXUXUXUXUXUXUXUXUXUXUXUXUXUXUXUXUXUXUX5.v.S.G.G.S.n.h.6.X.....] ] ] X.g.c.v.b.v.c.7.[ UXUXUXUXUXUXUXUXUXUXUXUXUXUXUXUXUXUXUXUX",
"UXUXUXUXUXUXUXUXUXUXUXUXUXUXUXUXUXUXUXUXUXUXUX7.c.b.S.F.G.G.Z.Z.Z.S.Z.S.B.b.c.5.7.( UXUXUXUXUXUXUXUXUXUXUXUXUXUXUXUXUXUXUXUXUXUX",
"UXUXUXUXUXUXUXUXUXUXUXUXUXUXUXUXUXUXUXUXUXUXUXUXUXUXUX' [ | d.6.a.5.| { ' Z UXUXUXUXUXUXUXUXUXUXUXUXUXUXUXUXUXUXUXUXUXUXUXUXUXUX"
};
